{"messages": [{"role": "user", "message": "ffmpeg version N-random-g73a871f3b25 shared. Build: gcc-latest.\nInput #0, mov,mp4, from 'input_video_63.mp4':\n  Duration: 00:00:09.00, start: 0.000000, bitrate: 1000 kb/s\n    Stream #0:0: Video: h264 (Main), yuv420p, 1920x1080, 26 fps\n    Stream #0:1: Audio: aac, 48000 Hz, stereo\n[libx264 @ 0x8a927a4d530184e9] PSNR Y:42.50 U:42.63 V:40.40 Avg:42.00 Global:31.90\nOutput #0, mp4, to 'output_video_93.mp4':\n  Stream #0:0: Video: h264 (H.264 Main)\n  Stream #0:1: Audio: aac\nframe=  234 fps= 26 q=29.0 size=     22527kB time=00:00:09.00 bitrate=1956kbits/s speed=2.5x\nvideo:20274kB audio:2252kB subtitle:0kB other streams:0kB global headers:0kB muxing overhead: 0.000%"}, {"role": "assistant", "message": "{\"successful\":true,\"psnr_value\":31.9,\"error_message\":\"\",\"resolution_steps\":\"Output file generated as expected. No further action needed.\"}"}]}

@全体成员 系统中所有人的开题报告均已退回，请同学们逐条对照要求认真修改。首先，大家要端正态度，不少同学提交的开题报告质量较差，AI使用痕迹明显。我理解大家一边实习一边写论文的辛苦，但还是希望能在毕业论文上多花一些时间和心思。虽然并非每个人今后都会从事学术研究，但至少在论文写作上要做到规范，顺利通过，也算是对自己的一份交代。另外也提醒大家，身处AI时代，适当借助工具是可以的，但请务必清楚，毕业论文将同时接受AI检测和知网检测，任何一项不通过都会影响毕业。